<svg width="104" height="87" viewBox="0 0 104 87" fill="none" xmlns="http://www.w3.org/2000/svg">
<path fill-rule="evenodd" clip-rule="evenodd" d="M101.314 74.1792C96.6715 80.3455 84.5618 77.5421 74.2692 67.9176C63.9766 58.2868 64.1987 49.9782 68.8466 43.8055C73.4888 37.6392 80.7911 35.9483 91.0894 45.5728C101.376 55.2036 105.956 68.013 101.314 74.1792Z" fill="#7D944D"/>
<path d="M97.7936 61.8596C96.0563 61.8596 94.3874 61.0396 93.2084 59.5711L85.8776 50.4361C84.8637 49.1711 84.3055 47.5437 84.3055 45.8464V41.4283C84.3055 40.9515 84.653 40.5701 85.0745 40.5701C85.5017 40.5701 85.8435 40.9578 85.8435 41.4283V45.8464C85.8435 47.1178 86.2593 48.3383 87.0225 49.2855L94.3533 58.4205C95.3785 59.6919 96.8937 60.3212 98.4088 60.0924L101.257 59.6665C101.678 59.6093 102.066 59.9335 102.123 60.4039C102.18 60.8743 101.883 61.3066 101.462 61.3701L98.6138 61.7961C98.3461 61.8342 98.067 61.8596 97.7936 61.8596Z" fill="white"/>
<path fill-rule="evenodd" clip-rule="evenodd" d="M46.5328 98.8158C80.8853 98.8158 88.3983 74.7546 83.8927 49.4855C79.3872 24.2165 63.8201 0.835449 46.5328 0.835449C29.2455 0.835449 13.4733 22.6209 9.17857 49.4855C4.8838 76.3565 12.1804 98.8158 46.5328 98.8158Z" fill="#9BB168"/>
<path fill-rule="evenodd" clip-rule="evenodd" d="M45.855 14.6111H54.4844C63.4784 14.6111 70.7692 22.748 70.7692 32.7857C70.7692 42.8234 63.4784 50.9604 54.4844 50.9604H45.855C36.861 50.9604 29.5702 42.8234 29.5702 32.7857C29.5702 22.7417 36.861 14.6111 45.855 14.6111Z" fill="#7D944D"/>
<path fill-rule="evenodd" clip-rule="evenodd" d="M47.8771 13.0281H56.5065C65.5005 13.0281 72.7913 21.165 72.7913 31.2027C72.7913 41.2404 65.5005 49.3774 56.5065 49.3774H47.8771C38.8831 49.3774 31.5923 41.2404 31.5923 31.2027C31.5923 21.165 38.8831 13.0281 47.8771 13.0281Z" fill="white"/>
<path d="M40.6203 99.0002C40.1931 99.0002 39.8513 98.6124 39.8513 98.142V88.5875C39.8513 84.7987 42.6139 81.7092 46.0144 81.7092H57.9247C60.4708 81.7092 62.5441 79.3952 62.5441 76.5537V73.9473C62.5441 73.4705 62.8916 73.0891 63.3131 73.0891C63.7403 73.0891 64.082 73.4769 64.082 73.9473V76.5537C64.082 80.3424 61.3195 83.4319 57.919 83.4319H46.0144C43.4683 83.4319 41.3949 85.7459 41.3949 88.5875V98.1357C41.3949 98.6124 41.0475 99.0002 40.6203 99.0002Z" fill="#7D944D"/>
<path d="M63.3131 55.7663C62.8859 55.7663 62.5442 55.3785 62.5442 54.9081V54.3105C62.5442 51.9394 64.2701 50.0132 66.3947 50.0132H83.5054C83.9326 50.0132 84.2744 50.401 84.2744 50.8714C84.2744 51.3482 83.9269 51.7296 83.5054 51.7296H66.3947C65.1188 51.7296 64.0821 52.8865 64.0821 54.3105V54.9081C64.0821 55.3848 63.7403 55.7663 63.3131 55.7663Z" fill="#7D944D"/>
<path fill-rule="evenodd" clip-rule="evenodd" d="M55.7681 55.4735L65.9292 55.2758C70.4557 55.1872 74.1894 59.2072 74.2723 64.2562C74.2723 64.2562 74.2723 64.2562 74.2713 64.2625C74.3486 69.3104 70.7465 73.4783 66.22 73.567L56.0589 73.7647C51.5324 73.8534 47.7987 69.8334 47.7158 64.7843C47.7158 64.7843 47.7158 64.7843 47.7168 64.7781C47.6405 59.7239 51.2426 55.5559 55.7681 55.4735Z" fill="#926247"/>
<path fill-rule="evenodd" clip-rule="evenodd" d="M58.1896 55.2657L68.1531 55.0743C72.732 54.983 76.515 59.0579 76.5946 64.1644L76.5936 64.1706C76.6722 69.2834 73.0219 73.4999 68.4384 73.5838L58.4749 73.7752C53.896 73.8665 50.1177 69.799 50.0324 64.6914L50.0334 64.6851C49.9548 59.5724 53.6051 55.3559 58.1896 55.2657Z" fill="white"/>
<path d="M58.4311 69.0719C56.36 69.0703 54.6515 67.2107 54.6131 64.8865C54.573 62.5362 56.257 60.5902 58.364 60.5473L58.4277 60.547C58.4511 60.5451 58.4736 60.5496 58.497 60.5477C60.568 60.5493 62.2766 62.409 62.315 64.7331C62.355 67.0834 60.6711 69.0294 58.5641 69.0723L58.5004 69.0727C58.4779 69.0682 58.4545 69.0701 58.4311 69.0719ZM58.3942 62.2633C57.1351 62.2861 56.13 63.4496 56.1524 64.8479C56.1739 66.2524 57.2131 67.367 58.4722 67.3442L58.5359 67.3438C59.7894 67.3198 60.7945 66.1564 60.772 64.7581C60.7506 63.3536 59.7021 62.2242 58.4523 62.2618L58.3942 62.2633Z" fill="#926247"/>
<path d="M64.7894 63.3773C64.3792 63.3739 64.0365 63.0161 64.0224 62.5553C64.0047 62.0809 64.3339 61.6813 64.7592 61.6619L70.6054 61.3817C71.0307 61.3623 71.3892 61.7297 71.407 62.2041C71.4247 62.6785 71.0955 63.0781 70.6702 63.0975L64.824 63.3776C64.8128 63.3754 64.8016 63.3732 64.7894 63.3773Z" fill="#926247"/>
<path d="M65.0118 66.8753C64.6016 66.8719 64.2589 66.5141 64.2449 66.0533C64.2272 65.5788 64.5563 65.1792 64.9816 65.1598L68.3564 64.9991C68.7818 64.9796 69.1403 65.3471 69.158 65.8215C69.1757 66.2959 68.8466 66.6956 68.4212 66.715L65.0465 66.8757C65.0343 66.8797 65.023 66.8775 65.0118 66.8753Z" fill="#926247"/>
<path fill-rule="evenodd" clip-rule="evenodd" d="M51.5817 24.0872C52.5842 24.0872 53.3987 24.9962 53.3987 26.115V26.8016C53.3987 27.9204 52.5842 28.8295 51.5817 28.8295C50.5792 28.8295 49.7646 27.9204 49.7646 26.8016V26.115C49.7646 24.9962 50.5792 24.0872 51.5817 24.0872Z" fill="#926247"/>
<path fill-rule="evenodd" clip-rule="evenodd" d="M64.466 24.0872C65.4685 24.0872 66.283 24.9962 66.283 26.115V26.8016C66.283 27.9204 65.4685 28.8295 64.466 28.8295C63.4635 28.8295 62.649 27.9204 62.649 26.8016V26.115C62.649 24.9962 63.4635 24.0872 64.466 24.0872Z" fill="#926247"/>
<path d="M56.5429 37.8373C54.4696 37.8373 52.7836 35.9557 52.7836 33.6417C52.7836 33.1649 53.131 32.7835 53.5525 32.7835C53.9797 32.7835 54.3215 33.1713 54.3215 33.6417C54.3215 35.0085 55.3183 36.1209 56.5429 36.1209L59.989 36.0892C61.2193 36.0764 62.2104 34.9894 62.2446 33.6163C62.256 33.1395 62.6148 32.7708 63.0363 32.7835C63.4635 32.7962 63.7939 33.1904 63.7825 33.6671C63.7255 35.9684 62.0623 37.7865 60.0004 37.8119L56.5429 37.8373Z" fill="#4F3422"/>
<path fill-rule="evenodd" clip-rule="evenodd" d="M4.45402 82.4784C10.7025 86.5023 21.2002 79.2554 27.9101 66.2871C34.6199 53.3188 31.8631 45.6015 25.6146 41.5711C19.3661 37.5535 11.9955 38.7486 5.28564 51.7169C-1.42423 64.6851 -1.79447 78.4544 4.45402 82.4784Z" fill="#7D944D"/>
<path d="M19.3262 78.4733C19.0186 78.4733 18.7224 78.2635 18.6085 77.9203L16.3928 71.4997C15.9428 70.1965 16.0453 68.7598 16.6776 67.552L21.2856 58.6967C22.0204 57.2918 23.3817 56.4146 24.8399 56.4146H30.9175C31.3447 56.4146 31.6865 56.8023 31.6865 57.2727C31.6865 57.7432 31.339 58.1309 30.9175 58.1309H24.8342C23.9228 58.1309 23.0741 58.6776 22.6128 59.5549L18.0047 68.4102C17.6117 69.1667 17.549 70.063 17.8281 70.8767L20.0439 77.31C20.1977 77.755 19.9983 78.2508 19.5996 78.4225C19.5085 78.4542 19.4173 78.4733 19.3262 78.4733Z" fill="white"/>
</svg>
