<svg width="196" height="88" viewBox="0 0 196 88" fill="none" xmlns="http://www.w3.org/2000/svg">
<path d="M134.76 42.9824C189.315 65.9736 208.12 44.2126 248.989 57.6782C263.2 62.3662 297.455 74.0696 289.036 150.092C287.811 161.197 295.529 177.106 300.5 186.349C305.201 195.077 328.06 272.313 248.976 291.348C187.079 306.243 126.018 318.844 64.3773 290.865C42.8786 281.107 18.1739 271.033 5.98315 246.279C-5.08951 223.804 0.0292358 181.312 16.9615 162.394C67.5294 105.888 31.6443 84.1771 70.6006 49.7651C85.8356 36.3161 106.58 31.1127 134.76 42.9824Z" fill="#F5F5F5"/>
<path d="M159.193 100.556C176.278 114.651 191.345 132.998 205.746 150.559C198.189 162.643 188.831 174.249 177.891 181.392C195.132 213.125 218.191 286.511 216.624 314.701C216.298 320.733 216.872 327.091 214.606 332.453C212.325 337.854 208.244 341.378 203.682 343.963C200.501 323.74 196.063 303.785 190.833 284.232C173.236 216.361 159.317 147.476 133.868 84.1631C142.837 88.3571 151.232 93.9874 159.193 100.556Z" fill="#9BB168"/>
<path d="M128.033 81.6538C130.004 82.4199 131.959 83.2434 133.868 84.1435C159.317 147.475 173.236 216.342 190.833 284.212C196.063 303.765 200.501 323.72 203.682 343.943C201.432 345.227 199.058 346.261 196.73 347.18C177.705 354.649 157.905 358 137.918 358.9C136.847 265.674 119.297 172.295 102.708 76.6172C111.15 76.7321 119.731 78.4557 128.033 81.6538Z" fill="white"/>
<path d="M42.3916 120.588C49.8091 101.073 62.0836 88.4528 76.4375 81.9415C84.6929 78.2071 93.6311 76.4835 102.74 76.6176C119.328 172.314 136.863 265.674 137.95 358.901C122.541 359.59 107.023 358.805 91.6758 357.33C89.6896 357.139 87.4706 356.794 86.1981 354.898C84.5377 352.428 85.3446 348.751 86.074 345.667C90.5275 326.823 88.8672 306.695 86.7412 287.238C83.2808 255.525 78.7341 223.983 73.1012 192.729C72.6667 190.335 72.2322 187.903 71.9529 185.452C69.439 186.984 66.9406 188.535 64.4423 190.067C55.5662 195.563 34.4931 181.909 31.7465 193.687C30.0706 167.527 32.9724 145.369 42.3916 120.588Z" fill="#9BB168"/>
<path d="M178.326 -1.44122L180.902 0.282349C182.469 1.71866 182.252 2.19743 182.609 4.55298L183.509 11.6005C183.54 11.8303 183.819 11.8303 183.85 11.6005L184.735 4.59128C185.092 2.23573 185.045 1.71866 186.597 0.2632L189.033 -1.46037C189.126 -1.53698 189.126 -1.70933 189.033 -1.80509L186.286 -3.43291C184.75 -4.86922 184.843 -5.82676 184.486 -8.18231L183.85 -14.8276C183.819 -15.0575 183.54 -15.0575 183.509 -14.8276L182.764 -7.93335C182.423 -5.59695 182.221 -4.62026 180.7 -3.18395L178.31 -1.80509C178.233 -1.69018 178.233 -1.51783 178.326 -1.44122Z" fill="white"/>
<path d="M128.157 35.8835C130.283 33.6046 130.485 29.717 130.082 26.289C129.694 22.861 128.856 19.3564 129.476 16.005C130.097 12.6727 132.89 9.6086 135.73 10.681C136.397 10.93 137.018 11.3896 137.716 11.5237C140.385 12.0408 141.58 8.03824 143.303 5.70184C145.289 3.02072 149.029 2.4079 151.698 4.32298C154.382 6.23806 155.686 10.4704 154.646 13.8218C153.994 15.9092 152.784 18.7244 154.444 19.9117C154.941 20.2756 155.531 20.2948 156.105 20.3331C157.858 20.448 159.674 20.7927 161.179 21.9034C162.7 23.0142 163.848 25.0059 163.693 27.055C163.476 29.851 161.086 31.498 159.007 32.8577C156.927 34.2174 154.662 36.2665 154.91 39.0817C155.081 40.8819 156.275 42.414 156.539 44.195C157.005 47.3166 154.569 49.8445 152.179 51.1659C149.432 52.6788 146.406 53.5406 143.334 53.6555C141.611 53.7321 139.827 53.5597 138.197 54.1534C136.568 54.7471 135.063 56.3557 135.078 58.3857L128.157 35.8835Z" fill="#3F3C36"/>
<path d="M118.583 62.6945L106.122 61.6604C109.257 43.2181 123.409 33.2406 132.565 28.6061C137.189 26.2697 140.556 25.293 140.556 25.293L139.175 44.7119L135.358 98.2959C134.582 109.097 126.528 116.642 117.854 114.88C117.714 114.861 117.574 114.823 117.435 114.804C106.976 112.64 101.529 98.2001 106.945 86.9394C112.686 74.9127 118.583 62.6945 118.583 62.6945Z" fill="#CFD9B5"/>
<path d="M146.065 59.0178C143.008 61.2776 139.066 60.0519 137.235 56.2792C135.404 52.5065 136.397 47.6422 139.454 45.3824C142.511 43.1226 146.453 44.3482 148.284 48.121C150.099 51.8937 149.122 56.7771 146.065 59.0178Z" fill="#CFD9B5"/>
<path d="M139.594 51.9704C141.906 51.3767 144.218 50.783 146.53 50.2277C147.43 50.017 147.803 51.7023 146.903 51.9129C144.591 52.4683 142.279 53.062 139.966 53.6556C139.082 53.9046 138.694 52.2002 139.594 51.9704Z" fill="#3F3C36"/>
<path d="M118.568 62.6947L106.775 87.5333L127.801 62.6755L118.568 62.6947Z" fill="#3F3C36"/>
<path d="M126.42 33.7002C122.618 35.4812 118.738 37.6836 115.278 40.3264C115.278 39.8284 115.278 39.3114 115.278 38.8135C116.783 39.6561 118.273 40.4796 119.778 41.3222C120.616 41.7818 119.887 43.2947 119.064 42.8351C117.559 41.9925 116.069 41.169 114.564 40.3264C114.052 40.0391 114.145 39.1199 114.564 38.8135C118.133 36.094 122.121 33.8342 126.047 32.0149C126.901 31.6127 127.273 33.298 126.42 33.7002Z" fill="#3F3C36"/>
<path d="M117.589 44.1758L116.658 46.8186C120.274 49.6529 124.355 51.4914 128.576 52.3532C129.321 51.7978 130.035 51.185 130.702 50.4956C126.016 49.7104 121.469 47.5272 117.589 44.1758Z" fill="white"/>
<path d="M117.249 55.2066C119.638 55.5896 122.09 55.3598 124.402 54.5363C123.72 54.0767 123.006 53.6937 122.23 53.4447C120.43 52.9659 118.49 53.5979 117.249 55.2066Z" fill="#ED7E1C"/>
<path d="M116.674 46.7998L114.052 54.2878C115.091 54.7282 116.178 55.0155 117.264 55.1879C118.49 53.5792 120.445 52.9664 122.245 53.426C123.021 53.6941 123.735 54.058 124.417 54.5176C125.876 54.0005 127.288 53.2728 128.592 52.3152C124.355 51.4918 120.274 49.6533 116.674 46.7998Z" fill="#3F3C36"/>
<path d="M128.452 38.4113C131.54 37.5495 134.581 38.9667 136.506 42.05C137.064 42.9501 135.823 43.8119 135.28 42.9309C133.759 40.4988 131.245 39.4263 128.84 40.0966C127.94 40.3647 127.567 38.6603 128.452 38.4113Z" fill="#3F3C36"/>
<path d="M131.758 40.2881C131.649 41.035 132.099 41.8393 132.704 41.9734C133.31 42.1074 133.961 41.5712 134.085 40.8435C133.604 41.3989 132.658 40.9775 132.596 40.1732C133.046 40.1158 133.511 40.3647 133.791 40.8052L131.758 40.2881Z" fill="#3F3C36"/>
<path d="M132.455 40.2884C132.378 41.0928 133.2 41.4566 133.386 40.5948C133.774 40.8821 134.178 41.1694 134.566 41.4566C133.666 42.3567 132.114 41.9354 131.897 40.4033C131.819 39.8288 132.083 39.3117 132.58 39.2926C133.231 39.2543 133.852 39.5799 134.271 40.1735C134.876 41.0162 133.883 42.261 133.262 41.4183C133.061 41.1311 132.874 41.0353 132.564 41.0353C132.797 40.6714 133.014 40.2884 133.247 39.9246C133.262 40.0395 133.418 40.3459 133.557 40.2118C134.085 39.6756 134.938 40.1544 134.737 41.0736C134.488 42.2227 133.557 43.0461 132.58 42.8355C131.633 42.644 130.919 41.4758 131.028 40.2884C131.074 39.8097 131.323 39.4075 131.742 39.4075C132.099 39.4075 132.502 39.8097 132.455 40.2884Z" fill="#3F3C36"/>
<path d="M131.183 41.3035C132.533 41.2651 133.774 41.878 134.752 43.0079C135.419 43.7739 134.411 45.0187 133.743 44.2527C133.029 43.4292 132.145 43.0462 131.167 43.0653C130.267 43.0845 130.267 41.3226 131.183 41.3035Z" fill="#3F3C36"/>
<path d="M159.271 31.2872C156.881 32.1873 155.733 35.7493 157.595 38.1624C158.293 39.0624 159.38 39.3689 160.016 40.3647C160.962 41.8585 160.792 43.9267 160.202 45.5546C158.371 50.6678 153.374 51.4147 149.417 51.7594C148.502 51.836 148.502 50.0933 149.417 50.0167C152.412 49.7677 155.795 49.4613 157.967 46.5887C159.349 44.7502 159.659 42.4138 157.998 40.652C157.316 39.9242 156.679 39.6753 156.105 38.6986C154.041 35.1748 155.733 30.7893 158.883 29.6019C159.767 29.2572 160.155 30.9616 159.271 31.2872Z" fill="#3F3C36"/>
<path d="M155.484 25.5417C152.597 24.6799 152.83 20.7349 154.087 18.2261C155.391 15.6024 157.532 13.0745 157.004 9.66569C156.353 5.41421 152.194 4.51412 149.882 7.23354C149.215 8.01872 148.221 6.77392 148.873 5.98874C151.418 3.00121 155.53 3.09696 157.563 6.86967C158.587 8.76561 158.711 11.0446 158.153 13.1894C157.61 15.3152 152.349 22.8223 155.872 23.8564C156.741 24.1054 156.368 25.7907 155.484 25.5417Z" fill="#3F3C36"/>
<path d="M129.383 28.1277C128.902 24.9103 127.381 21.9994 127.195 18.7055C127.04 16.0627 127.738 13.3624 129.026 11.2558C130.097 9.51309 131.85 7.5597 133.728 7.5597C134.814 7.5597 135.466 8.22998 136.351 8.90026C138.275 10.3366 140.494 10.3557 141.968 7.90442C142.511 7.00433 143.737 7.88527 143.194 8.78536C142.278 10.2983 141.114 11.3133 139.563 11.6197C137.235 12.0793 135.823 9.8961 133.697 9.8578C130.562 9.80035 128.607 14.3008 128.576 17.882C128.545 21.2908 130.237 24.355 130.733 27.6681C130.919 28.7597 129.554 29.2384 129.383 28.1277Z" fill="#3F3C36"/>
<path d="M113.198 47.5078C116.317 43.3903 120.817 41.5327 125.115 44.0606C129.352 46.5502 131.571 51.9699 131.928 57.5428C132.098 60.1665 128.778 60.1473 128.607 57.5428C128.064 48.9058 120.895 43.3329 115.526 50.3995C114.082 52.3338 111.739 49.442 113.198 47.5078Z" fill="#3F3C36"/>
<path d="M136.195 28.6252C138.585 28.9508 140.432 31.268 140.649 34.2364C140.726 35.3663 139.314 35.3471 139.221 34.2364C139.081 32.3021 137.762 30.5977 136.195 30.3871C135.295 30.253 135.295 28.4911 136.195 28.6252Z" fill="#3F3C36"/>
<path d="M140.975 42.9884C136.49 39.9243 132.006 36.8601 127.521 33.796C127.847 33.7002 128.173 33.5853 128.499 33.4896C127.102 36.975 127.18 41.5329 129.647 44.2523C133.045 47.9867 138.306 46.2057 140.711 41.801C141.223 40.8626 142.449 41.7436 141.937 42.682C139.159 47.7378 133.418 49.8635 129.275 46.1291C125.783 42.9692 125.442 37.1665 127.257 32.6086C127.428 32.1682 127.909 32.0724 128.235 32.3022C132.72 35.3664 137.204 38.4305 141.689 41.4946C142.496 42.0308 141.766 43.5438 140.975 42.9884Z" fill="#3F3C36"/>
<path d="M122.586 30.0807C118.102 27.0165 113.617 23.9524 109.133 20.8883C109.459 20.7925 109.784 20.6776 110.11 20.5819C108.714 24.0673 108.791 28.6252 111.259 31.3446C114.657 35.079 119.917 33.298 122.323 28.8933C122.835 27.9549 124.061 28.8359 123.549 29.7743C120.771 34.8301 115.029 36.9558 110.886 33.2214C107.395 30.0615 107.053 24.2588 108.869 19.7009C109.04 19.2605 109.521 19.1647 109.846 19.3945C114.331 22.4586 118.816 25.5228 123.3 28.5869C124.107 29.104 123.393 30.6169 122.586 30.0807Z" fill="#3F3C36"/>
<path d="M126.636 36.2666C124.774 35.041 122.896 33.7961 121.034 32.5705C120.227 32.0343 120.941 30.5214 121.748 31.0576C123.61 32.2832 125.488 33.528 127.35 34.7537C128.157 35.2899 127.443 36.8028 126.636 36.2666Z" fill="#3F3C36"/>
<path d="M115.882 45.0759C109.272 50.1892 103.654 57.8687 102.941 67.4632C102.816 69.2443 102.925 71.2168 103.903 72.5382C105.268 74.3767 109.505 74.4916 111.506 74.032C118.893 72.3084 123.719 70.0486 130.345 65.7014C132.735 64.131 135.605 61.1626 137.219 58.4623C138.833 55.7621 139.516 51.9894 138.259 49.021C135.373 53.4448 131.648 57.1409 127.319 59.0752C124.231 60.454 113.4 63.3075 113.57 55.9727C113.632 53.464 115.091 51.0701 116.674 49.4806L115.882 45.0759Z" fill="#3F3C36"/>
<path d="M162.277 83.0211L165.694 85.3304C167.776 87.2392 167.489 87.8754 167.967 91.0331L169.17 100.412C169.208 100.718 169.59 100.718 169.628 100.412L170.812 91.1038C171.289 87.9697 171.232 87.2863 173.294 85.354L176.54 83.0447C176.655 82.9268 176.655 82.6912 176.54 82.5969L172.874 80.429C170.831 78.4967 170.945 77.2242 170.487 74.1136L169.628 65.2298C169.59 64.9234 169.208 64.9234 169.17 65.2298L168.177 74.3964C167.718 77.507 167.47 78.803 165.427 80.7118L162.258 82.5498C162.143 82.6912 162.143 82.9033 162.277 83.0211Z" fill="#FFBD1A"/>
<path d="M76.4096 43.0504L79.8274 45.3597C81.9087 47.2685 81.6223 47.9047 82.0996 51.0624L83.3217 60.4176C83.3599 60.7239 83.7417 60.7239 83.7799 60.4176L84.9638 51.1095C85.4411 47.9754 85.3838 47.292 87.446 45.3597L90.692 43.0504C90.8066 42.9326 90.8066 42.6969 90.692 42.6027L87.0259 40.4347C84.9829 38.5024 85.0974 37.2299 84.6392 34.1194L83.799 25.2591C83.7608 24.9527 83.3789 24.9527 83.3408 25.2591L82.3479 34.4257C81.8896 37.5363 81.6223 38.8323 79.5983 40.7411L76.4287 42.5791C76.295 42.7205 76.295 42.9561 76.4096 43.0504Z" fill="#FFBD1A"/>
</svg>
