<svg width="172" height="88" viewBox="0 0 172 88" fill="none" xmlns="http://www.w3.org/2000/svg">
<path d="M97.3374 33.7832C66.9734 47.179 56.5072 34.5 33.7604 42.3457C25.8507 45.0771 6.7851 51.8961 11.4709 96.1904C12.1532 102.661 7.85721 111.93 5.09071 117.316C2.47416 122.401 -10.2488 167.402 33.7679 178.493C68.2179 187.172 102.203 194.514 136.511 178.212C148.477 172.526 162.227 166.656 169.012 152.234C175.174 139.138 172.325 114.381 162.901 103.358C134.756 70.4352 154.729 57.7852 133.047 37.7351C124.568 29.8991 113.022 26.8674 97.3374 33.7832Z" fill="#F5F5F5"/>
<path d="M161.477 86.6692C160.72 82.4073 159.595 78.068 158.62 73.7771C158.425 72.9053 158.215 72.0045 157.788 71.1715C156.918 69.4764 155.396 68.8759 154.272 69.2052C150.771 70.232 149.826 75.1622 151.205 80.0246C152.248 83.7149 154.564 88.2286 157.503 90.5727C158.523 91.3863 159.73 92.0062 160.585 91.6381C161.964 91.057 161.807 88.5289 161.477 86.6692Z" fill="#F5F5F5"/>
<path d="M0.937152 93.0232C1.76935 95.435 3.11137 98.0212 4.55835 99.9294C6.3427 102.273 9.62652 103.649 9.15419 98.5346C8.77182 94.2824 7.91713 90.2724 7.12242 86.1364C6.82253 84.5673 6.38019 82.9691 5.50301 81.8164C4.61832 80.6638 3.19384 80.0729 2.06924 80.7897C1.3645 81.245 0.877174 82.1264 0.569785 83.0659C-0.382372 86.0008 -0.0599882 90.1464 0.937152 93.0232Z" fill="#F5F5F5"/>
<path d="M59.8927 98.7053C58.8476 100.535 58.6231 101.194 57.2671 102.109C55.3843 103.381 53.5965 101.818 52.3268 99.598C45.8406 88.2278 40.6154 64.1484 39.6826 64.2265C14.7655 66.5697 12.2867 75.8757 32.3759 127.795C42.5846 154.017 65.9557 142.624 69.9545 136.855C70.3864 136.23 76.7085 136.788 68.9267 131.7C68.4949 131.421 71.8287 129.658 72.131 129.156C74.057 125.898 71.0082 121.959 72.6837 118.489C67.4758 112.921 62.8551 106.371 59.8927 98.7053Z" fill="#CFD9B5"/>
<path d="M83.7389 67.3288C74.2298 75.5412 65.8434 86.2307 57.8285 96.4628C62.0346 103.504 67.2426 110.265 73.3315 114.428C63.7361 132.917 50.9018 175.675 51.7741 192.1C51.9555 195.615 51.6359 199.319 52.8969 202.443C54.1665 205.59 56.438 207.643 58.9772 209.149C60.7477 197.366 63.2179 185.74 66.1285 174.347C75.9226 134.802 83.6698 94.6663 97.8341 57.7773C92.842 60.221 88.1695 63.5015 83.7389 67.3288Z" fill="#9BB168"/>
<path d="M101.081 56.3152C99.9845 56.7615 98.8963 57.2413 97.834 57.7658C83.6697 94.6659 75.9225 134.791 66.1284 174.335C63.2178 185.728 60.7477 197.355 58.9771 209.138C60.2294 209.885 61.5509 210.488 62.8464 211.024C73.4351 215.375 84.4556 217.328 95.5798 217.852C96.1757 163.534 105.944 109.127 115.177 53.3806C110.478 53.4476 105.702 54.4518 101.081 56.3152Z" fill="white"/>
<path d="M148.747 78.9999C144.619 67.6297 137.787 60.2765 129.798 56.4827C125.204 54.3068 120.229 53.3026 115.159 53.3807C105.926 109.138 96.1668 163.534 95.5622 217.852C104.139 218.254 112.775 217.797 121.317 216.938C122.423 216.826 123.658 216.625 124.366 215.52C125.29 214.081 124.841 211.939 124.435 210.142C121.956 199.163 122.88 187.435 124.064 176.099C125.99 157.621 128.52 139.243 131.655 121.033C131.897 119.638 132.139 118.221 132.294 116.793C133.694 117.685 135.084 118.589 136.475 119.482C141.415 122.684 153.144 114.728 154.672 121.591C155.605 106.349 153.99 93.4386 148.747 78.9999Z" fill="#9BB168"/>
<path d="M40.1748 51.8854C42.6709 49.8769 45.1669 47.8796 47.6543 45.8711C48.0861 45.5252 47.6888 44.6437 47.257 44.9896C44.761 46.9981 42.2649 48.9954 39.7775 51.0039C39.3457 51.3498 39.743 52.2425 40.1748 51.8854Z" fill="#3F3C36"/>
<path d="M118.381 99.2634C120.575 94.2422 122.415 88.9644 124.608 83.9432C124.859 83.3741 124.176 82.8608 123.926 83.4299C121.732 88.4511 119.893 93.7289 117.699 98.7501C117.448 99.3192 118.131 99.8325 118.381 99.2634Z" fill="#3F3C36"/>
<path d="M112.051 102.455C112.051 102.455 106.532 94.8224 103.474 92.0998C98.2318 87.4468 97.7481 84.6573 95.1916 80.5622C94.518 79.491 93.162 80.1605 93.1274 81.5888C93.0583 84.6684 94.1984 88.5738 95.3816 90.7496C96.4871 92.7804 95.0448 95.6592 93.1965 95.1013C86.3389 93.0259 78.0476 90.3256 72.6755 90.1694C71.2159 90.1248 69.0481 91.3299 69.5145 93.2044C69.6786 93.8516 70.1363 94.2198 70.5768 94.5211C74.7052 97.3888 81.0878 99.52 86.0366 100.692C83.7824 101.283 78.419 99.4307 77.443 103.202C76.6139 106.416 78.6263 109.228 80.9668 109.228C79.4727 108.625 72.0364 116.168 94.1725 124.012L112.051 102.455Z" fill="#CFD9B5"/>
<path d="M112.335 102.086C109.528 98.2146 106.609 94.3539 103.258 91.2742C100.762 88.9756 98.8619 86.32 97.1259 83.0952C96.3486 81.6558 94.7076 77.8397 93.1098 80.2722C92.3498 81.4215 92.7643 83.4746 92.9975 84.8024C93.3516 86.889 94.0167 88.8082 94.8458 90.6382C95.2776 91.5866 95.5799 92.39 95.1222 93.4612C94.5176 94.856 93.4725 94.644 92.4448 94.3315C90.536 93.7513 88.6273 93.1599 86.7186 92.602C83.3934 91.6201 80.0596 90.6828 76.6826 90.0914C74.5666 89.7232 71.0342 88.6855 69.4623 91.2965C67.4931 94.5547 72.8997 96.5186 74.4198 97.2438C78.1423 99.018 82.0374 100.234 85.9326 101.172C85.9326 100.848 85.9326 100.513 85.9326 100.19C83.4107 100.748 79.671 98.9957 77.6586 101.752C75.2576 105.032 78.1336 109.562 80.9665 109.73C81.4156 109.752 81.4933 108.871 81.0701 108.726C79.8437 108.302 78.5396 110.098 78.2632 111.471C77.5291 115.008 80.9233 117.741 82.8752 119.114C86.3645 121.58 90.251 123.131 94.0685 124.492C94.5608 124.671 94.7681 123.678 94.2758 123.51C90.4842 122.149 86.6063 120.631 83.1516 118.154C81.6833 117.094 79.8523 115.688 79.1614 113.579C78.7209 112.24 79.4896 109.239 80.8542 109.719C80.8888 109.384 80.9233 109.049 80.9579 108.714C77.4859 108.502 76.2681 102.254 80.0596 101.406C82.072 100.96 84.1276 101.629 86.1313 101.183C86.5113 101.093 86.5027 100.29 86.1313 100.201C83.0652 99.4643 80.0251 98.5382 77.0454 97.3331C75.5512 96.7306 74.0657 96.0499 72.632 95.2465C72.0274 94.9006 71.3019 94.577 70.7578 94.0749C69.255 92.6801 70.2223 91.33 71.5092 90.8725C72.6665 90.4596 73.9534 90.7274 75.128 90.8837C76.7863 91.1068 78.4359 91.4527 80.0855 91.8544C83.2811 92.6243 86.4595 93.5728 89.6205 94.5324C91.5293 95.1126 94.5176 96.9314 95.7958 93.9856C96.2018 93.0595 96.245 91.9548 95.9168 90.9729C95.3208 89.2099 94.4744 87.7482 94.0253 85.8513C93.7748 84.7913 93.5676 83.6866 93.5244 82.582C93.5157 82.2918 93.438 81.6 93.5416 81.3211C94.2326 79.4019 95.1308 81.2876 95.4245 81.7897C96.0463 82.8609 96.6163 83.9879 97.2209 85.0702C98.5855 87.5362 100.201 89.6228 102.075 91.4304C105.59 94.8448 108.751 98.6498 111.757 102.812C112.119 103.292 112.681 102.566 112.335 102.086Z" fill="#3F3C36"/>
<path d="M94.8457 81.2987C94.4916 83.6642 95.8476 86.1413 97.7909 86.0855C98.3004 86.0744 98.3004 85.0478 97.7909 85.0701C96.3917 85.1148 95.3467 83.3071 95.6058 81.5665C95.7008 80.9305 94.9407 80.6515 94.8457 81.2987Z" fill="#3F3C36"/>
<path d="M34.9579 65.4762C35.2602 66.4023 35.4675 67.3954 35.5625 68.3885C35.623 69.0357 36.4175 69.0357 36.3484 68.3885C36.2362 67.1946 36.003 66.0676 35.6402 64.9518C35.4416 64.3492 34.7593 64.8737 34.9579 65.4762Z" fill="white"/>
<path d="M73.0897 7.9L71.656 8.90424C70.7837 9.7411 70.9046 10.0201 70.706 11.3925L70.205 15.4987C70.1878 15.6326 70.0323 15.6326 70.015 15.4987L69.5227 11.4148C69.3241 10.0424 69.35 9.74111 68.4863 8.89308L67.1304 7.88884C67.0785 7.84421 67.0785 7.74379 67.1304 7.688L68.6591 6.73955C69.5141 5.90269 69.4623 5.34478 69.6609 3.97232L70.015 0.100424C70.0323 -0.0334746 70.1878 -0.0334746 70.205 0.100424L70.6196 4.11737C70.8096 5.47867 70.9219 6.04774 71.7683 6.88461L73.0984 7.688C73.1416 7.75495 73.1416 7.85537 73.0897 7.9Z" fill="white"/>
<path d="M62.095 14.6956L60.9981 15.4655C60.3331 16.1015 60.4194 16.3135 60.2726 17.3735L59.8926 20.509C59.8753 20.6094 59.7631 20.6094 59.7458 20.509L59.3658 17.3958C59.2189 16.347 59.2276 16.1127 58.5712 15.4766L57.5348 14.7067C57.4916 14.6732 57.4916 14.5951 57.5348 14.5505L58.7094 13.8252C59.3658 13.178 59.3226 12.754 59.478 11.7163L59.7458 8.7594C59.7631 8.65898 59.8753 8.65898 59.8926 8.7594L60.2122 11.8279C60.359 12.8656 60.4367 13.3008 61.0845 13.948L62.1036 14.5617C62.1382 14.5728 62.1382 14.6509 62.095 14.6956Z" fill="white"/>
<path d="M101.012 29.6472C99.8291 28.3194 99.7168 26.0542 99.9413 24.0569C100.157 22.0596 100.624 20.0177 100.278 18.065C99.9327 16.1235 98.3781 14.3381 96.7976 14.963C96.4262 15.1081 96.0807 15.3759 95.692 15.454C94.2065 15.7552 93.5415 13.4232 92.5828 12.0619C91.4773 10.4997 89.3958 10.1427 87.9103 11.2585C86.4161 12.3743 85.6907 14.8403 86.2693 16.7929C86.6321 18.0092 87.3057 19.6494 86.3816 20.3413C86.1052 20.5533 85.777 20.5644 85.4575 20.5867C84.4815 20.6537 83.471 20.8545 82.6332 21.5017C81.7868 22.1489 81.1477 23.3093 81.2341 24.5033C81.355 26.1324 82.6851 27.092 83.8424 27.8842C84.9997 28.6764 86.2607 29.8703 86.1225 31.5106C86.0275 32.5595 85.3625 33.4521 85.2156 34.4898C84.9565 36.3086 86.3125 37.7815 87.6426 38.5514C89.1713 39.4329 90.8555 39.935 92.5655 40.002C93.5242 40.0466 94.5174 39.9462 95.4243 40.2921C96.3312 40.638 97.1689 41.5753 97.1603 42.7581L101.012 29.6472Z" fill="#3F3C36"/>
<path d="M106.341 45.2685L113.276 44.666C111.532 33.9206 103.655 28.1072 98.5594 25.4069C95.9856 24.0456 94.1115 23.4766 94.1115 23.4766L94.8801 34.791L97.0048 66.0116C97.4366 72.3048 101.919 76.7012 106.747 75.6746C106.825 75.6634 106.903 75.6411 106.98 75.63C112.801 74.3691 115.833 65.9558 112.819 59.3948C109.623 52.3875 106.341 45.2685 106.341 45.2685Z" fill="#CFD9B5"/>
<path d="M91.0455 43.1263C92.7469 44.443 94.9407 43.7289 95.9598 41.5307C96.9789 39.3325 96.4262 36.4984 94.7247 35.1817C93.0233 33.865 90.8295 34.5792 89.8104 36.7773C88.7999 38.9755 89.344 41.8208 91.0455 43.1263Z" fill="#CFD9B5"/>
<path d="M94.647 39.0201C93.3601 38.6742 92.0732 38.3283 90.7863 38.0047C90.2854 37.882 90.0781 38.8639 90.579 38.9867C91.8659 39.3102 93.1528 39.6561 94.4397 40.002C94.932 40.1471 95.1479 39.154 94.647 39.0201Z" fill="#3F3C36"/>
<path d="M106.35 45.2685L112.913 59.7407L101.211 45.2573L106.35 45.2685Z" fill="#3F3C36"/>
<path d="M101.979 28.375C104.095 29.4127 106.255 30.6959 108.181 32.2357C108.181 31.9456 108.181 31.6443 108.181 31.3542C107.343 31.8452 106.514 32.325 105.676 32.8159C105.21 33.0837 105.616 33.9652 106.073 33.6974C106.911 33.2065 107.74 32.7267 108.578 32.2357C108.863 32.0683 108.811 31.5327 108.578 31.3542C106.592 29.7697 104.372 28.4531 102.187 27.393C101.712 27.1587 101.504 28.1406 101.979 28.375Z" fill="#3F3C36"/>
<path d="M106.894 34.4788L107.412 36.0186C105.4 37.67 103.129 38.7412 100.779 39.2433C100.365 38.9197 99.9675 38.5627 99.5961 38.161C102.204 37.7035 104.735 36.4314 106.894 34.4788Z" fill="white"/>
<path d="M107.084 40.9059C105.754 41.129 104.389 40.9951 103.102 40.5153C103.482 40.2475 103.88 40.0244 104.311 39.8793C105.313 39.6004 106.393 39.9686 107.084 40.9059Z" fill="#ED7E1C"/>
<path d="M107.404 36.0076L108.863 40.3704C108.285 40.6271 107.68 40.7944 107.075 40.8949C106.393 39.9576 105.305 39.6005 104.303 39.8683C103.871 40.0245 103.474 40.2365 103.094 40.5043C102.282 40.203 101.496 39.779 100.771 39.2211C103.128 38.7413 105.4 37.6701 107.404 36.0076Z" fill="#3F3C36"/>
<path d="M100.848 31.12C99.1297 30.6179 97.4368 31.4436 96.3659 33.2401C96.055 33.7645 96.7459 34.2666 97.0482 33.7534C97.8946 32.3363 99.2938 31.7114 100.632 32.1019C101.133 32.2582 101.341 31.2651 100.848 31.12Z" fill="#3F3C36"/>
<path d="M99.0083 32.2138C99.0688 32.649 98.8183 33.1176 98.4815 33.1957C98.1447 33.2738 97.7819 32.9614 97.7128 32.5374C97.9806 32.861 98.5074 32.6155 98.542 32.1469C98.2915 32.1134 98.0324 32.2584 97.8769 32.5151L99.0083 32.2138Z" fill="#3F3C36"/>
<path d="M98.6201 32.2138C98.6633 32.6825 98.2056 32.8945 98.1019 32.3924C97.886 32.5597 97.6614 32.7271 97.4455 32.8945C97.9465 33.4189 98.8101 33.1734 98.931 32.2808C98.9742 31.946 98.8274 31.6448 98.551 31.6336C98.1883 31.6113 97.8428 31.801 97.6096 32.1469C97.2728 32.6378 97.8255 33.3631 98.171 32.8722C98.2833 32.7048 98.3869 32.649 98.5597 32.649C98.4301 32.437 98.3092 32.2138 98.1797 32.0018C98.171 32.0688 98.0846 32.2473 98.0069 32.1692C97.7133 31.8568 97.2382 32.1357 97.3505 32.6713C97.4887 33.3408 98.0069 33.8206 98.551 33.6979C99.0779 33.5863 99.4752 32.9056 99.4147 32.2138C99.3888 31.9349 99.2506 31.7006 99.0174 31.7006C98.8188 31.7006 98.5942 31.9349 98.6201 32.2138Z" fill="#3F3C36"/>
<path d="M99.3283 32.8052C98.5769 32.7829 97.886 33.1399 97.3419 33.7983C96.9705 34.2446 97.5319 34.9699 97.9032 34.5235C98.3005 34.0437 98.7928 33.8206 99.337 33.8317C99.8379 33.8429 99.8379 32.8163 99.3283 32.8052Z" fill="#3F3C36"/>
<path d="M83.6952 26.9693C85.0253 27.4937 85.6644 29.5692 84.628 30.9751C84.2394 31.4995 83.6348 31.6781 83.2807 32.2583C82.7538 33.1286 82.8488 34.3337 83.177 35.2821C84.1962 38.2614 86.9772 38.6966 89.1796 38.8974C89.6892 38.942 89.6892 37.9266 89.1796 37.882C87.5127 37.7369 85.6299 37.5584 84.4207 35.8847C83.652 34.8135 83.4793 33.4522 84.4035 32.4256C84.7835 32.0016 85.1376 31.8566 85.4571 31.2875C86.6058 29.2344 85.6644 26.6792 83.9112 25.9874C83.4189 25.7865 83.2029 26.7796 83.6952 26.9693Z" fill="#3F3C36"/>
<path d="M85.8031 23.6216C87.4095 23.1195 87.28 20.8209 86.5804 19.3592C85.8549 17.8305 84.663 16.3577 84.9567 14.3715C85.3194 11.8944 87.6341 11.3699 88.921 12.9544C89.2924 13.4119 89.8451 12.6866 89.4824 12.2291C88.0659 10.4884 85.7772 10.5442 84.6458 12.7424C84.0757 13.8471 84.0066 15.1749 84.3176 16.4246C84.6199 17.6632 87.5477 22.0372 85.5872 22.6397C85.1035 22.7848 85.3108 23.7667 85.8031 23.6216Z" fill="#3F3C36"/>
<path d="M100.33 25.1281C100.598 23.2535 101.444 21.5575 101.548 19.6383C101.634 18.0984 101.246 16.5251 100.529 15.2977C99.9328 14.2823 98.9569 13.1442 97.9118 13.1442C97.3072 13.1442 96.9445 13.5347 96.4522 13.9253C95.3812 14.7621 94.1462 14.7733 93.3257 13.345C93.0234 12.8206 92.3411 13.3339 92.6434 13.8583C93.1529 14.7398 93.8007 15.3312 94.6644 15.5097C95.9599 15.7775 96.7458 14.5055 97.9291 14.4832C99.6737 14.4497 100.762 17.0719 100.779 19.1585C100.796 21.1446 99.8551 22.9299 99.5787 24.8603C99.4751 25.4963 100.235 25.7753 100.33 25.1281Z" fill="#3F3C36"/>
<path d="M111.825 75.7977C108.457 79.3237 103.448 79.8704 99.7426 76.8689C96.1497 73.9566 94.3274 68.1543 95.1306 62.8319C95.2256 62.1847 94.4656 61.9169 94.3706 62.5641C93.5069 68.3552 95.4415 74.5926 99.3453 77.7615C103.37 81.0197 108.742 80.3391 112.387 76.5341C112.784 76.1101 112.223 75.3849 111.825 75.7977Z" fill="#3F3C36"/>
<path d="M109.338 36.4202C107.602 34.0212 105.098 32.9388 102.705 34.4117C100.348 35.8623 99.1125 39.0201 98.9138 42.2671C98.8188 43.7958 100.667 43.7846 100.762 42.2671C101.064 37.2348 105.055 33.9877 108.043 38.1051C108.846 39.2321 110.15 37.5472 109.338 36.4202Z" fill="#3F3C36"/>
<path d="M96.5386 25.4183C95.2086 25.608 94.1808 26.9581 94.0599 28.6877C94.0167 29.346 94.8026 29.3348 94.8545 28.6877C94.9322 27.5607 95.6663 26.5676 96.5386 26.4449C97.0396 26.3667 97.0396 25.3402 96.5386 25.4183Z" fill="#3F3C36"/>
<path d="M59.2621 30.5957L33.4468 11.3367C31.6158 9.97539 29.327 11.6826 29.327 14.4052V52.9233C29.327 55.6571 31.6158 57.3643 33.4468 55.9918L59.2621 36.7327C61.0931 35.3714 61.0931 31.9682 59.2621 30.5957Z" fill="#ED7E1C"/>
<path d="M45.8322 88.2278C45.8322 88.2278 42.0061 76.4782 39.2424 58.5247C40.4515 59.3281 42.1098 60.4104 43.2844 61.3365C44.459 62.2627 46.1259 62.4077 46.4454 60.9683C46.6182 60.1761 46.4282 59.1272 45.9445 58.3573C44.079 55.3557 40.0024 51.1491 36.7463 51.7293C36.7809 51.0821 36.1677 50.5131 35.6581 50.2676C33.8012 49.3638 29.4482 49.0179 28.0232 50.1337C26.6067 51.2495 25.8813 52.5104 25.8813 54.9652C25.0608 49.3749 28.8178 45.1348 31.0374 41.1625C31.4433 40.4372 31.8406 39.5557 31.5643 38.5403C31.1411 36.9893 29.7419 37.1344 28.7228 37.5919C22.2797 40.493 19.0582 53.2691 18.3759 61.0687C17.685 68.9687 16.6399 81.6333 23.057 101.618C24.8103 107.074 29.4482 91.4525 34.9067 92.7692C36.9968 93.249 45.124 93.3717 45.8322 88.2278Z" fill="#CFD9B5"/>
<path d="M37.1519 50.7139C33.0149 48.5939 34.6559 60.0087 35.1482 62.0841C35.295 62.709 36.0637 62.4412 35.9082 61.8163C35.6059 60.5443 33.9995 50.2007 36.936 51.707C37.411 51.9413 37.6183 50.9594 37.1519 50.7139Z" fill="#3F3C36"/>
<path d="M32.1514 49.6315C28.7658 51.2829 29.5259 57.1633 29.6554 60.8678C29.6813 61.5261 30.4673 61.5261 30.4414 60.8678C30.3291 57.7881 29.5345 51.9859 32.3501 50.6134C32.8337 50.3902 32.6351 49.3972 32.1514 49.6315Z" fill="#3F3C36"/>
<path d="M26.2701 50.7251C24.6982 53.4589 24.7759 58.1676 25.2423 61.3589C25.3373 62.0061 26.0973 61.7271 26.0023 61.0911C25.5618 58.1342 25.5014 53.7602 26.9437 51.2496C27.2547 50.714 26.5724 50.2007 26.2701 50.7251Z" fill="#3F3C36"/>
<path d="M28.8264 37.4803C28.7487 38.8528 27.7382 39.5111 26.7795 39.2098C26.2872 39.0536 26.0713 40.0355 26.5722 40.1917C28.0577 40.6604 29.5087 39.5222 29.621 37.4803C29.6555 36.822 28.8696 36.8331 28.8264 37.4803Z" fill="#3F3C36"/>
<path d="M23.0568 61.9393C22.3572 61.8277 21.6576 61.705 20.9667 61.5934C20.4658 61.5153 20.4658 62.5307 20.9667 62.6199C21.6663 62.7315 22.3659 62.8543 23.0568 62.9658C23.5577 63.044 23.5577 62.0174 23.0568 61.9393Z" fill="white"/>
<path d="M30.6746 63.7355C29.7591 63.423 28.835 63.3784 27.9281 63.7131C27.4358 63.8917 27.6431 64.8736 28.1354 64.6951C28.9127 64.4049 29.6814 64.4496 30.4673 64.7174C30.9596 64.8848 31.1669 63.9028 30.6746 63.7355Z" fill="white"/>
<path d="M36.1587 64.7511C35.4764 64.3494 34.7941 64.182 34.0513 64.3159C33.5504 64.4052 33.7663 65.3871 34.2586 65.2978C34.7682 65.2086 35.295 65.3536 35.7614 65.6326C36.2192 65.9004 36.6251 65.0189 36.1587 64.7511Z" fill="white"/>
<path d="M93.8783 33.7872C96.3744 32.0018 98.8704 30.2165 101.366 28.4312C101.185 28.3754 101.004 28.3085 100.822 28.2527C101.6 30.2835 101.556 32.9391 100.183 34.5236C98.2917 36.6994 95.3639 35.6617 94.0252 33.0953C93.7402 32.5486 93.0579 33.0619 93.3429 33.6086C94.8889 36.5544 98.0845 37.7929 100.39 35.6171C102.334 33.776 102.524 30.3951 101.513 27.7394C101.418 27.4828 101.151 27.427 100.969 27.5609C98.4731 29.3462 95.9771 31.1315 93.4811 32.9168C93.0319 33.2292 93.4379 34.1107 93.8783 33.7872Z" fill="#3F3C36"/>
<path d="M104.113 26.2664C106.609 24.4811 109.105 22.6958 111.601 20.9105C111.42 20.8547 111.238 20.7877 111.057 20.7319C111.834 22.7627 111.791 25.4184 110.418 27.0028C108.526 29.1787 105.598 28.141 104.26 25.5746C103.975 25.0278 103.292 25.5411 103.577 26.0879C105.123 29.0336 108.319 30.2722 110.625 28.0963C112.568 26.2552 112.758 22.8743 111.748 20.2187C111.653 19.962 111.385 19.9062 111.204 20.0401C108.708 21.8254 106.212 23.6108 103.716 25.3961C103.267 25.6973 103.664 26.5788 104.113 26.2664Z" fill="#3F3C36"/>
<path d="M101.859 29.8705C102.895 29.1564 103.94 28.4311 104.977 27.717C105.426 27.4046 105.029 26.5231 104.579 26.8355C103.543 27.5496 102.498 28.2749 101.462 28.989C101.012 29.3015 101.41 30.183 101.859 29.8705Z" fill="#3F3C36"/>
<path d="M107.844 35.0032C111.524 37.9824 114.65 42.4568 115.047 48.0471C115.116 49.0848 115.056 50.2341 114.512 51.004C113.752 52.0752 111.394 52.1422 110.28 51.8744C106.169 50.8701 103.483 49.5535 99.7948 47.0205C98.4647 46.1056 96.8669 44.3761 95.9687 42.8028C95.0705 41.2294 94.6904 39.0313 95.39 37.3018C96.9965 39.8793 99.0693 42.0328 101.479 43.1598C103.198 43.9632 109.226 45.6258 109.131 41.3522C109.097 39.8905 108.285 38.4957 107.404 37.5696L107.844 35.0032Z" fill="#3F3C36"/>
<path d="M40.3648 51.7181C42.9213 49.9663 45.4692 48.2145 48.0256 46.4626C48.4748 46.1502 48.0775 45.2687 47.6284 45.5811C45.0719 47.333 42.524 49.0848 39.9675 50.8366C39.5184 51.1379 39.9157 52.0194 40.3648 51.7181Z" fill="#3F3C36"/>
<path d="M51.7137 43.4834C53.6657 41.6312 55.7298 40.0244 57.9149 38.6519C58.3727 38.3618 57.9754 37.4803 57.5177 37.7705C55.3412 39.1429 53.277 40.7497 51.3165 42.602C50.9105 42.9925 51.2992 43.874 51.7137 43.4834Z" fill="#3F3C36"/>
<path d="M82.0224 57.1118L80.1201 58.4573C78.9617 59.5694 79.1211 59.9401 78.8555 61.78L78.1859 67.2445C78.1647 67.423 77.9521 67.423 77.9309 67.2445L77.272 61.8211C77.0063 59.9951 77.0382 59.5969 75.8904 58.471L74.0838 57.1255C74.02 57.0569 74.02 56.9196 74.0838 56.8646L76.1242 55.6015C77.2614 54.4756 77.1976 53.7342 77.4527 51.9219L77.9309 46.7457C77.9521 46.5672 78.1647 46.5672 78.1859 46.7457L78.7386 52.0866C78.9936 53.899 79.1318 54.6541 80.2689 55.7662L82.0331 56.8372C82.0968 56.9196 82.0968 57.0431 82.0224 57.1118Z" fill="#FFBD1A"/>
<path d="M129.814 33.823L127.912 35.1685C126.753 36.2806 126.913 36.6513 126.647 38.4911L125.967 43.9419C125.946 44.1204 125.733 44.1204 125.712 43.9419L125.053 38.5186C124.787 36.6925 124.819 36.2944 123.671 35.1685L121.865 33.823C121.801 33.7543 121.801 33.617 121.865 33.5621L123.905 32.2989C125.042 31.1731 124.978 30.4317 125.234 28.6193L125.701 23.4569C125.722 23.2784 125.935 23.2784 125.956 23.4569L126.509 28.7978C126.764 30.6102 126.913 31.3653 128.039 32.4774L129.803 33.5484C129.878 33.6307 129.878 33.768 129.814 33.823Z" fill="#FFBD1A"/>
</svg>
