<svg width="375" height="613" viewBox="0 0 375 613" fill="none" xmlns="http://www.w3.org/2000/svg">
<path d="M219.382 0C200.426 2.9141 181.354 5.56852 161.966 7.38623C107.434 12.6662 56.3656 27.6118 6.22002 51.3574C-66.0554 85.4898 -133.31 127.499 -208.5 152.803V310.741C-129.502 271.213 -71.1623 204.449 -3.47443 146.34C118.86 40.7974 279.886 53.1174 429.486 16.1862C446.595 11.8007 462.983 6.26098 478.91 0L219.382 0Z" fill="#FFF4E0"/>
<path d="M406.634 104.129C327.434 139.3 248.234 166.565 166.38 193.831C94.22 218.442 36.14 263.308 -26.3256 311.664C-82.2705 354.222 -138.244 400.761 -208.5 406.877V528H-170.703C-148.689 492.742 -111.498 469.228 -72.98 454.138C-37.78 440.952 -3.47443 428.632 29.9656 409.301C38.7656 404.915 45.8056 397.875 54.6056 391.701C98.6056 363.57 137.326 339.824 181.326 311.664C206.86 295.824 229.74 281.773 257.006 274.733C340.62 251.882 407.471 207.016 481.42 164.805C513.677 146.455 548.213 136.818 583.5 133.298V74.7857C522.939 72.8237 462.81 78.7673 406.634 104.129Z" fill="#FFF4E0"/>
<path d="M420.714 395.221C367.914 425.112 308.074 424.246 252.649 443.578C226.249 453.243 192.636 459.648 159.138 485.327C143.327 497.445 134.296 513.545 121.168 528H583.5V325.802C576.806 326.321 570.055 327.158 563.246 328.37C508.714 337.17 467.34 369.715 420.714 395.221Z" fill="#FFF4E0"/>
<path d="M309.648 409.591C317.789 418.556 330.381 410.917 334.294 401.889C337.386 394.787 337.954 386.612 339.027 379.036C340.258 370.513 341.362 361.99 342.372 353.468C346.064 322.06 350.356 289.232 343.003 258.013C341.394 251.258 334.609 222.029 322.397 229.51C320.819 230.488 322.271 232.982 323.848 232.003C335.02 225.185 342.467 269.945 343.098 276.037C344.739 292.041 344.013 308.203 342.625 324.206C341.078 341.662 339.027 359.086 336.566 376.416C335.493 384.023 334.956 392.167 332.243 399.396C329.402 407.003 319.146 415.747 311.731 407.571C310.437 406.182 308.417 408.202 309.648 409.591Z" fill="#FFCE5C"/>
<path d="M-5.7635 330.204C-12.9269 315.747 -11.5384 299.396 -7.43601 284.244C-3.45984 269.566 2.59909 255.141 9.98341 241.852C24.4049 215.936 47.757 193.115 78.3356 189.232C80.1659 189.011 80.1659 186.107 78.3356 186.359C46.6841 190.4 22.4799 213.506 7.4904 240.431C-0.52505 254.825 -7.152 270.703 -11.0335 286.706C-14.6941 301.732 -15.2621 317.546 -8.22493 331.687C-7.43601 333.329 -4.94302 331.845 -5.7635 330.204Z" fill="#FFCE5C"/>
<path d="M567.973 355.046C555.918 354.225 543.264 353.184 534.049 354.257C514.137 356.561 495.518 365.179 476.174 370.387C456.293 375.721 435.654 377.489 415.143 379.194C400.185 380.456 385.227 381.719 370.237 381.719C356.51 381.75 342.783 380.772 329.118 379.541C307.439 377.615 285.349 375.564 263.196 372.817C213.115 366.631 162.877 356.971 117.151 337.653C106.043 332.95 95.0609 327.931 84.2369 322.597C33.2409 297.47 -14.41 265.4 -57.0118 227.489C-73.0427 213.222 -88.3478 198.165 -102.864 182.319L-102.927 182.256C-105.83 179.068 -102.359 174.144 -98.446 175.88L-77.1451 185.318C-73.7685 186.801 -69.7292 186.328 -67.0154 183.803C-63.7334 180.741 -64.8695 176.921 -66.1633 173.575C-70.3919 162.591 -76.2615 152.269 -80.2061 141.189C-82.4151 134.939 -84.0876 125.122 -84.3717 115.747C-84.5294 110.476 -77.3976 108.929 -75.441 113.79C-71.7489 122.944 -61.7769 139.895 -52.6254 151.7C-51.1107 153.658 -48.1443 151.637 -49.3435 149.459C-57.138 135.507 -65.8477 117.389 -66.4789 107.288C-66.6682 104.163 -64.4592 101.29 -61.3667 101.006C-57.4221 100.627 -55.718 104.983 -54.5819 108.487C-50.3849 121.271 -43.6632 133.487 -32.997 141.473C-37.9199 133.866 -43.253 123.197 -45.9353 114.453C-47.4501 109.529 -41.0125 106.183 -38.0146 110.318C-34.8589 114.674 -31.861 121.177 -29.7151 124.933C-17.471 146.271 -1.28233 165.274 17.778 180.615C29.5172 190.084 42.2977 198.133 55.0152 206.183C78.8091 221.176 106.358 235.097 134.381 245.671C150.349 251.637 166.443 256.561 182.063 260.002C203.774 264.768 225.927 267.799 248.27 269.756C282.383 272.755 316.874 273.291 350.766 273.765C398.133 274.427 446.857 274.522 491.068 257.224C500.283 253.626 518.555 247.218 534.996 243.272C539.887 242.104 542.222 249.175 537.615 251.227C524.771 257.003 510.003 263.222 497.822 267.578C496.054 268.209 494.666 269.693 494.35 271.555C493.625 275.879 500.378 274.996 504.701 273.891L557.685 260.381C563.271 258.96 566.963 266.063 562.671 269.945C560.21 272.155 557.149 274.017 554.277 275.311C543.327 280.236 526.097 285.949 511.17 291.378C506.342 293.146 508.235 300.501 513.284 299.585C528.022 296.965 549.512 290.652 567.531 285.728C573.148 284.181 576.461 291.883 571.57 295.071C559.01 303.184 545.82 309.749 532.029 315.368C515.525 322.123 518.807 335.854 530.42 337.843C537.015 338.979 543.201 339.579 547.271 339.61C553.172 339.674 562.261 341.41 570.213 344.535C575.957 346.839 574.032 355.456 567.973 355.046Z" fill="#F6A460"/>
<path d="M142.838 286.138C149.402 306.34 169.851 312.117 185.408 305.393C201.597 298.765 214.22 283.518 223.371 267.104C207.814 265.179 190.994 263.948 175.815 260.002C164.833 257.161 153.599 253.279 142.365 248.638C138.957 260.791 139.619 274.049 142.838 286.138Z" fill="#F6A460"/>
<path d="M265.153 378.973C264.49 376.953 263.827 374.901 263.164 372.817C257.421 354.793 251.993 335.538 250.668 316.915C249.248 296.965 248.522 281.561 248.238 269.756C244.23 269.409 227.316 267.515 223.34 267.073C212.61 283.487 206.646 296.587 187.617 303.184C169.346 309.907 150.98 306.309 143.28 286.107C139.493 274.017 138.704 260.76 142.743 248.638C139.935 247.66 137.158 246.65 134.349 245.608C118.003 259.213 105.254 277.142 95.7866 296.018C91.4317 304.667 87.5818 313.537 84.2052 322.597C69.8153 360.949 63.5039 402.363 61.8629 443.019C59.5908 499.49 62.1154 557.35 72.0874 613L421.675 599.553C354.679 536.232 294.185 468.272 265.153 378.973Z" fill="#FFCE5C"/>
<path d="M189.29 216.883C182.631 210.507 183.073 198.512 190.173 192.515C194.055 189.232 199.356 187.717 202.859 184.087C210.969 175.69 205.415 162.307 205.573 150.848C205.699 139.737 212.989 129.983 222.141 123.197C238.771 110.791 249.721 117.641 263.038 112.938C294.816 101.732 289.483 84.0239 302.2 70.7032C314.918 57.4141 334.42 52.4267 353.039 52.3951C366.86 52.3951 379.83 59.7184 393.652 59.308C409.778 58.8345 411.072 40.6843 441.871 38.9166C463.298 37.7171 484.063 49.2701 494.035 67.6729C504.038 86.0756 498.863 116.536 481.412 128.815C468.695 137.749 442.913 141.505 427.418 139.611C411.198 137.622 401.731 125.343 388.288 134.434C372.856 144.851 372.478 168.336 357.677 179.541C346.096 188.317 329.813 186.644 315.265 184.939C300.749 183.235 284.087 182.572 273.547 192.515C266.383 199.301 262.944 210.349 253.571 213.695C240.444 218.367 225.044 204.352 212.926 211.17C209.676 213.001 207.372 216.094 204.342 218.272C201.313 220.45 196.737 221.524 193.992 219.061L189.29 216.883Z" fill="#4F3422"/>
<path d="M191.972 197.439C200.461 190.873 202.165 179.983 201.376 169.819C200.272 155.362 195.917 140.147 207.403 128.5C225.359 110.318 254.77 115.368 274.556 100.343C285.412 92.1046 288.852 78.4367 297.94 68.683C307.281 58.6451 320.377 52.2689 334.073 51.2903C356.825 49.6805 388.572 62.7171 405.675 40.7159C410.977 33.8661 413.912 18.1465 401.983 16.1578C398.291 15.5581 393.81 17.0417 392.295 20.7348C390.749 24.5227 394.883 26.9848 398.228 25.9116C399.995 25.3434 399.238 22.5656 397.471 23.1338C396.713 22.5341 395.987 21.9028 395.23 21.303C396.019 20.1982 397.06 19.5038 398.354 19.1566C399.743 18.7146 401.415 18.7778 402.772 19.2828C406.18 20.5455 407.569 24.3649 407.6 27.7108C407.663 33.3611 404.382 38.6325 400.248 42.2626C392.043 49.428 380.367 51.2272 369.858 50.8169C356.857 50.3118 343.919 47.0921 330.886 48.702C321.324 49.9014 312.109 53.5946 304.315 59.2449C296.015 65.2739 290.461 73.0075 285.475 81.8774C282.477 87.1804 279.416 92.4519 274.777 96.4607C270.202 100.406 264.742 103.121 259.094 105.141C240.854 111.707 218.448 112.086 204.5 127.363C196.548 136.107 195.822 147.06 197.147 158.329C198.536 170.356 201.723 186.328 190.552 194.914C189.069 196.05 190.489 198.544 191.972 197.439Z" fill="#4F3422"/>
<path d="M235.268 207.698C244.767 212.37 256.033 211.738 264.648 205.394C269.318 201.953 272.947 197.06 278.059 194.188C285.223 190.179 293.428 191.505 301.033 193.462C313.056 196.524 324.48 199.87 337.039 198.26C347.674 196.902 357.078 192.231 364.273 184.213C371.846 175.753 377.022 164.926 386.394 158.203C397.755 150.059 412.681 150.848 425.714 153.531C448.53 158.171 476.521 170.04 495.739 150.248C500.914 144.914 509.151 129.857 499.368 125.185C496.181 123.67 491.952 123.828 489.806 126.953C487.786 129.92 488.481 133.992 491.605 135.76C493.214 136.675 494.666 134.182 493.057 133.266C488.702 130.804 493.719 126.48 497.033 127.363C499.021 127.9 500.251 129.194 500.662 131.404C501.072 133.74 500.409 136.549 499.652 138.727C497.916 143.935 494.161 148.355 489.806 151.606C480.876 158.266 469.925 159.371 459.133 158.045C438.274 155.457 417.509 144.567 396.177 150.438C377.4 155.615 371.72 174.238 358.34 186.075C350.23 193.241 339.501 195.955 328.866 195.829C318.01 195.671 308.259 191.852 297.751 189.705C287.242 187.559 278.533 189.106 270.517 196.334C266.068 200.311 262.092 204.604 256.285 206.593C249.816 208.803 242.842 208.203 236.751 205.204C235.047 204.383 233.596 206.877 235.268 207.698Z" fill="#4F3422"/>
<path d="M83.7635 336.359C72.687 324.996 54.2262 326.479 38.7002 329.825C23.1742 333.171 5.97573 337.338 -7.71996 329.32C-8.66667 325.564 -5.29008 321.997 -1.72415 320.482C1.87333 318.966 5.91261 318.588 9.22609 316.536C20.0501 309.781 15.3481 291.599 24.1209 282.319C31.1897 274.869 44.917 275.564 50.0607 266.662C56.1512 256.119 45.1378 240.021 53.8791 231.561C56.1196 229.383 59.2122 228.373 61.9892 227.016C76.6632 219.914 84.2369 200.911 78.5251 185.633C85.2151 185.413 91.274 189.958 95.0924 195.45C98.9108 200.943 101.025 207.414 103.771 213.506C109.514 226.164 123.494 236.959 134.349 245.64C135.769 246.776 132.077 248.449 132.708 250.154C133.308 251.795 132.992 253.594 132.645 255.299C129.205 273.039 125.703 290.905 118.886 307.634C112.07 324.364 101.562 340.052 86.6036 350.216L83.7635 336.359Z" fill="#FFCE5C"/>
<path d="M241.043 276.132C262.375 252.268 292.418 235.507 324.89 229.352C313.782 238.38 301.664 249.775 303.368 263.506C303.873 267.515 305.577 271.46 305.104 275.501C303.683 287.653 283.866 293.525 285.16 305.677C286.012 313.758 296.394 319.251 295.826 327.363C295.258 335.317 284.181 340.81 285.728 348.638C286.706 353.594 292.386 356.372 295.132 360.696C299.171 367.041 296.268 375.122 296.836 382.476C297.593 392.641 307.092 407.95 317.569 410.349C286.359 411.296 254.076 388.632 238.929 362.937C223.75 337.243 225.201 303.594 242.526 279.131L241.043 276.132Z" fill="#FFCE5C"/>
<path d="M270.517 392.83C248.711 378.626 227.379 362.969 221.699 335.98C216.334 310.539 227 284.213 247.986 269.061C249.09 268.241 248.017 266.378 246.881 267.199C225.991 282.287 214.851 307.887 219.016 333.455C223.75 362.559 246.187 379.604 269.413 394.692C270.612 395.45 271.685 393.588 270.517 392.83Z" fill="#4F3422"/>
<path d="M80.8602 336.927C92.5363 303.91 110.082 271.965 134.223 246.397C135.17 245.387 133.655 243.84 132.677 244.882C108.283 270.766 90.5798 302.994 78.7775 336.359C78.3041 337.653 80.3869 338.222 80.8602 336.927Z" fill="#4F3422"/>
<path d="M64.5453 316.347C66.8805 316.22 68.9633 316.852 70.8882 318.177C72.0243 318.967 73.1288 317.104 71.9927 316.315C69.8153 314.8 67.2276 314.042 64.5768 314.2C63.1568 314.232 63.1568 316.41 64.5453 316.347Z" fill="#4F3422"/>
<path d="M70.7621 300.217C73.1919 302.584 75.7796 304.73 78.5251 306.687C79.6611 307.508 80.7341 305.614 79.6296 304.825C77.0103 302.963 74.5805 300.911 72.3084 298.67C71.267 297.723 69.7522 299.238 70.7621 300.217Z" fill="#4F3422"/>
<path d="M102.824 255.709C106.043 257.13 109.293 258.518 112.512 259.939C113.774 260.476 114.879 258.613 113.616 258.077C110.398 256.656 107.147 255.267 103.929 253.847C102.666 253.31 101.562 255.172 102.824 255.709Z" fill="#4F3422"/>
<path d="M112.102 249.364C113.017 252.174 114.879 254.51 117.466 255.93C118.697 256.593 119.77 254.731 118.571 254.068C116.488 252.9 114.942 251.069 114.184 248.796C113.774 247.47 111.691 248.039 112.102 249.364Z" fill="#4F3422"/>
<path d="M116.93 238.601C118.287 242.041 120.464 244.851 123.43 247.029C124.566 247.849 125.639 245.987 124.535 245.166C122.073 243.335 120.149 240.873 119.044 238.032C118.508 236.738 116.393 237.306 116.93 238.601Z" fill="#4F3422"/>
<path d="M238.866 285.097C241.8 284.371 244.735 283.645 247.67 282.919C249.027 282.571 248.459 280.488 247.102 280.835C244.167 281.561 241.232 282.287 238.298 283.013C236.941 283.329 237.509 285.412 238.866 285.097Z" fill="#4F3422"/>
<path d="M234.606 296.744C237.856 296.334 241.012 296.587 244.167 297.565C245.493 297.975 246.061 295.892 244.735 295.482C241.422 294.44 238.045 294.156 234.606 294.566C233.249 294.756 233.217 296.934 234.606 296.744Z" fill="#4F3422"/>
<path d="M227.821 343.651C230.061 345.987 232.302 348.323 234.542 350.69C235.521 351.7 237.035 350.153 236.089 349.175C233.848 346.839 231.608 344.503 229.367 342.136C228.389 341.094 226.874 342.641 227.821 343.651Z" fill="#4F3422"/>
<path d="M228.389 338.158C231.355 338.695 234.322 339.232 237.288 339.8C238.645 340.052 239.244 337.969 237.856 337.716C234.89 337.18 231.923 336.643 228.957 336.075C227.6 335.823 227 337.906 228.389 338.158Z" fill="#4F3422"/>
<path d="M227.221 328.91C229.84 330.33 232.649 331.088 235.584 331.151C236.972 331.182 236.972 329.036 235.584 328.973C232.996 328.91 230.566 328.247 228.294 327.016C227.063 326.384 225.99 328.247 227.221 328.91Z" fill="#4F3422"/>
<path d="M217.47 151.574C219.742 139.8 228.357 130.362 239.939 127.174C241.737 126.669 240.98 123.891 239.181 124.396C226.685 127.837 217.154 138.064 214.693 150.817C214.346 152.647 217.123 153.405 217.47 151.574Z" fill="#251404"/>
<path d="M281.436 119.788C288.094 115.621 294.974 111.202 298.918 104.163C301.127 100.249 302.611 95.9872 305.104 92.2309C307.881 88.0642 311.32 84.5289 315.202 81.4039C316.653 80.236 314.602 78.2158 313.151 79.3521C306.713 84.4973 301.979 90.8104 298.54 98.2915C294.469 107.193 288.094 112.212 279.953 117.294C278.406 118.273 279.858 120.766 281.436 119.788Z" fill="#251404"/>
<path d="M333.095 72.1236C344.928 62.9696 360.234 67.6413 372.983 71.9027C374.75 72.5024 375.507 69.6931 373.74 69.1249C359.729 64.4848 343.824 60.1918 331.043 70.1034C329.56 71.2082 331.643 73.2284 333.095 72.1236Z" fill="#251404"/>
<path d="M193.802 270.924L207.056 184.024C207.056 184.024 164.076 192.988 156.502 225.185L174.395 226.827L155.618 257.035C148.739 268.114 153.946 282.761 166.285 286.991C166.506 287.054 166.695 287.148 166.916 287.212C179.002 291.284 191.877 283.518 193.802 270.924Z" fill="#F6A460"/>
<path d="M214.03 223.512C209.581 226.037 203.932 224.459 201.408 220.008C198.883 215.558 200.461 209.907 204.91 207.382C209.36 204.857 215.009 206.435 217.533 210.886C220.026 215.337 218.48 220.987 214.03 223.512Z" fill="#F6A460"/>
<path d="M205.447 217.104C208.792 216.473 212.137 215.873 215.482 215.305C216.839 215.084 216.271 213.001 214.914 213.222C211.569 213.79 208.224 214.39 204.879 215.021C203.522 215.274 204.09 217.357 205.447 217.104Z" fill="#4F3422"/>
<path d="M174.363 226.827L156.691 255.33L187.649 227.111L174.363 226.827Z" fill="#4F3422"/>
<path d="M168.935 208.582C168.935 208.582 180.517 211.612 190.268 212.37C190.268 212.37 172.091 222.313 162.277 218.683L168.935 208.582Z" fill="white"/>
<path d="M185.945 191.252C180.233 193.241 174.426 195.734 169.219 198.796C168.557 199.175 168.462 200.311 169.219 200.659C171.365 201.7 173.48 202.71 175.625 203.752C176.888 204.352 177.961 202.489 176.73 201.89C174.584 200.848 172.47 199.838 170.324 198.796C170.324 199.428 170.324 200.027 170.324 200.659C175.373 197.692 180.99 195.293 186.513 193.335C187.838 192.894 187.27 190.81 185.945 191.252Z" fill="#4F3422"/>
<path d="M189.732 203.594C192.225 201.921 196.737 204.131 197.968 206.53C198.599 207.761 200.461 206.688 199.83 205.425C198.063 202.016 192.067 199.364 188.627 201.7C187.491 202.489 188.596 204.383 189.732 203.594Z" fill="#4F3422"/>
</svg>
