<svg width="449" height="448" viewBox="0 0 449 448" fill="none" xmlns="http://www.w3.org/2000/svg">
<rect x="0.316895" width="448" height="448" rx="224" fill="#ED7E1C"/>
<path fill-rule="evenodd" clip-rule="evenodd" d="M156.136 265.811C175.696 250.802 199.662 242.666 224.317 242.667C248.972 242.667 272.938 250.802 292.498 265.811C312.059 280.82 326.12 301.864 332.501 325.679C335.169 335.637 329.259 345.872 319.301 348.541C309.343 351.209 299.108 345.299 296.44 335.341C292.185 319.465 282.811 305.435 269.771 295.429C256.731 285.423 240.754 280 224.317 280C207.88 280 191.903 285.423 178.863 295.429C165.823 305.435 156.449 319.465 152.195 335.341C149.526 345.299 139.291 351.209 129.333 348.541C119.375 345.872 113.465 335.637 116.133 325.679C122.515 301.864 136.576 280.82 156.136 265.811Z" fill="#663600"/>
<path fill-rule="evenodd" clip-rule="evenodd" d="M112.317 130.667C122.626 130.667 130.983 139.024 130.983 149.333V205.333C130.983 215.642 122.626 224 112.317 224C102.007 224 93.6499 215.642 93.6499 205.333V149.333C93.6499 139.024 102.007 130.667 112.317 130.667Z" fill="#663600"/>
<path fill-rule="evenodd" clip-rule="evenodd" d="M336.317 130.667C346.626 130.667 354.983 139.024 354.983 149.333V205.333C354.983 215.642 346.626 224 336.317 224C326.007 224 317.65 215.642 317.65 205.333V149.333C317.65 139.024 326.007 130.667 336.317 130.667Z" fill="#663600"/>
</svg>
