<svg width="449" height="448" viewBox="0 0 449 448" fill="none" xmlns="http://www.w3.org/2000/svg">
<rect x="0.87793" width="448" height="448" rx="224" fill="#C0A091"/>
<path fill-rule="evenodd" clip-rule="evenodd" d="M336.878 130.667C347.187 130.667 355.544 139.024 355.544 149.333L355.544 205.333C355.544 215.642 347.187 224 336.878 224C326.568 224 318.211 215.642 318.211 205.333L318.211 149.333C318.211 139.024 326.568 130.667 336.878 130.667Z" fill="#4F3422"/>
<path fill-rule="evenodd" clip-rule="evenodd" d="M112.878 130.667C123.187 130.667 131.544 139.024 131.544 149.333L131.544 205.333C131.544 215.642 123.187 224 112.878 224C102.568 224 94.2109 215.642 94.2109 205.333L94.2109 149.333C94.2109 139.024 102.568 130.667 112.878 130.667Z" fill="#4F3422"/>
<path fill-rule="evenodd" clip-rule="evenodd" d="M94.2109 298.667C94.2109 288.357 102.568 280 112.878 280H336.878C347.187 280 355.544 288.357 355.544 298.667C355.544 308.976 347.187 317.333 336.878 317.333H112.878C102.568 317.333 94.2109 308.976 94.2109 298.667Z" fill="#4F3422"/>
</svg>
