<svg width="448" height="448" viewBox="0 0 448 448" fill="none" xmlns="http://www.w3.org/2000/svg">
<rect width="448" height="448" rx="224" fill="#9BB168"/>
<path fill-rule="evenodd" clip-rule="evenodd" d="M295.903 153.596C302.697 150.782 309.979 149.333 317.333 149.333C324.688 149.333 331.97 150.782 338.764 153.596C345.558 156.411 351.731 160.535 356.931 165.736C362.132 170.936 366.256 177.109 369.071 183.903C371.885 190.697 373.333 197.979 373.333 205.333C373.333 215.643 364.976 224 354.667 224C344.358 224 336 215.643 336 205.333C336 202.882 335.517 200.455 334.579 198.19C333.641 195.925 332.266 193.868 330.533 192.134C328.799 190.401 326.742 189.026 324.477 188.088C322.212 187.15 319.785 186.667 317.333 186.667C314.882 186.667 312.455 187.15 310.19 188.088C307.925 189.026 305.868 190.401 304.134 192.134C302.401 193.868 301.026 195.925 300.088 198.19C299.15 200.455 298.667 202.882 298.667 205.333C298.667 215.643 290.309 224 280 224C269.691 224 261.333 215.643 261.333 205.334C261.333 197.979 262.782 190.697 265.596 183.903C268.411 177.109 272.535 170.936 277.736 165.736C282.936 160.535 289.109 156.411 295.903 153.596Z" fill="#3D4A26"/>
<path fill-rule="evenodd" clip-rule="evenodd" d="M318.985 267.459C328.943 270.127 334.852 280.363 332.184 290.321C325.803 314.136 311.742 335.18 292.181 350.189C272.621 365.198 248.655 373.333 224 373.333C199.345 373.333 175.379 365.198 155.819 350.189C136.259 335.18 122.198 314.136 115.816 290.321C113.148 280.363 119.058 270.127 129.016 267.459C138.974 264.791 149.209 270.7 151.878 280.658C156.132 296.535 165.506 310.564 178.546 320.57C191.586 330.576 207.563 336 224 336C240.437 336 256.414 330.576 269.454 320.57C282.494 310.564 291.868 296.535 296.123 280.658C298.791 270.7 309.026 264.791 318.985 267.459Z" fill="#3D4A26"/>
<path fill-rule="evenodd" clip-rule="evenodd" d="M109.236 153.596C116.03 150.782 123.312 149.333 130.667 149.333C138.021 149.333 145.303 150.782 152.097 153.596C158.891 156.411 165.064 160.535 170.264 165.736C175.465 170.936 179.59 177.109 182.404 183.903C185.218 190.697 186.667 197.979 186.667 205.333C186.667 215.643 178.309 224 168 224C157.691 224 149.333 215.643 149.333 205.333C149.333 202.882 148.85 200.455 147.912 198.19C146.974 195.925 145.599 193.868 143.866 192.134C142.132 190.401 140.075 189.026 137.81 188.088C135.545 187.15 133.118 186.667 130.667 186.667C128.215 186.667 125.788 187.15 123.523 188.088C121.258 189.026 119.201 190.401 117.467 192.134C115.734 193.868 114.359 195.925 113.421 198.19C112.483 200.455 112 202.882 112 205.333C112 215.643 103.642 224 93.3332 224C83.0239 224 74.6665 215.643 74.6665 205.334C74.6665 197.979 76.115 190.697 78.9292 183.903C81.7435 177.109 85.8684 170.936 91.0685 165.736C96.2686 160.535 102.442 156.411 109.236 153.596Z" fill="#3D4A26"/>
</svg>
