<svg width="449" height="448" viewBox="0 0 449 448" fill="none" xmlns="http://www.w3.org/2000/svg">
<rect x="0.755859" width="448" height="448" rx="224" fill="#A694F5"/>
<path fill-rule="evenodd" clip-rule="evenodd" d="M286.223 117.467C293.513 110.178 305.332 110.178 312.622 117.467L368.622 173.467C375.912 180.757 375.912 192.576 368.622 199.866C361.332 207.156 349.513 207.156 342.223 199.866L286.223 143.866C278.933 136.576 278.933 124.757 286.223 117.467Z" fill="#3C357C"/>
<path fill-rule="evenodd" clip-rule="evenodd" d="M368.622 117.467C375.911 124.757 375.911 136.576 368.622 143.866L312.622 199.866C305.332 207.156 293.513 207.156 286.223 199.866C278.933 192.576 278.933 180.757 286.223 173.467L342.223 117.467C349.513 110.178 361.332 110.178 368.622 117.467Z" fill="#3C357C"/>
<path fill-rule="evenodd" clip-rule="evenodd" d="M80.8902 117.467C88.18 110.178 99.9991 110.178 107.289 117.467L163.289 173.467C170.579 180.757 170.579 192.576 163.289 199.866C155.999 207.156 144.18 207.156 136.89 199.866L80.8902 143.866C73.6004 136.576 73.6004 124.757 80.8902 117.467Z" fill="#3C357C"/>
<path fill-rule="evenodd" clip-rule="evenodd" d="M163.289 117.467C170.578 124.757 170.578 136.576 163.289 143.866L107.289 199.866C99.9987 207.156 88.1797 207.156 80.8899 199.866C73.6001 192.576 73.6001 180.757 80.8899 173.467L136.89 117.467C144.18 110.178 155.999 110.178 163.289 117.467Z" fill="#3C357C"/>
<path fill-rule="evenodd" clip-rule="evenodd" d="M156.575 265.811C176.135 250.802 200.101 242.666 224.756 242.667C249.411 242.667 273.377 250.802 292.937 265.811C312.497 280.82 326.559 301.864 332.94 325.679C335.608 335.637 329.698 345.872 319.74 348.541C309.782 351.209 299.547 345.299 296.878 335.341C292.624 319.465 283.25 305.435 270.21 295.429C257.17 285.423 241.193 280 224.756 280C208.319 280 192.342 285.423 179.302 295.429C166.262 305.435 156.888 319.465 152.634 335.341C149.965 345.299 139.73 351.209 129.772 348.541C119.814 345.872 113.904 335.637 116.572 325.679C122.954 301.864 137.015 280.82 156.575 265.811Z" fill="#3C357C"/>
</svg>
