<svg width="449" height="448" viewBox="0 0 449 448" fill="none" xmlns="http://www.w3.org/2000/svg">
<rect x="0.439209" width="448" height="448" rx="224" fill="#FFCE5C"/>
<path fill-rule="evenodd" clip-rule="evenodd" d="M336.439 130.667C346.749 130.667 355.106 139.024 355.106 149.333L355.106 205.333C355.106 215.642 346.749 224 336.439 224C326.13 224 317.773 215.642 317.773 205.333L317.773 149.333C317.773 139.024 326.13 130.667 336.439 130.667Z" fill="#705600"/>
<path fill-rule="evenodd" clip-rule="evenodd" d="M112.439 130.667C122.749 130.667 131.106 139.024 131.106 149.333L131.106 205.333C131.106 215.642 122.749 224 112.439 224C102.13 224 93.7727 215.642 93.7727 205.333L93.7727 149.333C93.7727 139.024 102.13 130.667 112.439 130.667Z" fill="#705600"/>
<path fill-rule="evenodd" clip-rule="evenodd" d="M319.424 267.459C329.382 270.127 335.291 280.363 332.623 290.321C326.242 314.136 312.181 335.18 292.621 350.189C273.06 365.198 249.094 373.333 224.439 373.333C199.784 373.333 175.818 365.198 156.258 350.189C136.698 335.18 122.637 314.136 116.256 290.321C113.587 280.363 119.497 270.127 129.455 267.459C139.413 264.791 149.649 270.7 152.317 280.658C156.571 296.535 165.945 310.564 178.985 320.57C192.025 330.576 208.003 336 224.439 336C240.876 336 256.853 330.576 269.894 320.57C282.934 310.564 292.308 296.535 296.562 280.658C299.23 270.7 309.466 264.791 319.424 267.459Z" fill="#705600"/>
</svg>
